<?xml version="1.0" encoding="UTF-8" standalone="no"?>
<!DOCTYPE svg PUBLIC "-//W3C//DTD SVG 1.1//EN"
 "http://www.w3.org/Graphics/SVG/1.1/DTD/svg11.dtd">
<!-- Generated by graphviz version 2.40.1 (20161225.0304)
 -->
<!-- Title: dependencies Pages: 1 -->
<svg width="540pt" height="284pt"
 viewBox="0.00 0.00 540.00 284.00" xmlns="http://www.w3.org/2000/svg" xmlns:xlink="http://www.w3.org/1999/xlink">
<g id="graph0" class="graph" transform="scale(1 1) rotate(0) translate(4 280)">
<title>dependencies</title>
<polygon fill="#ffffff" stroke="transparent" points="-4,4 -4,-280 536,-280 536,4 -4,4"/>
<text text-anchor="start" x="245.0091" y="-42.4" font-family="sans-serif" font-weight="bold" font-size="14.00" fill="#000000">Legend</text>
<polygon fill="#ffffb3" stroke="transparent" points="32,-10 32,-30 52,-30 52,-10 32,-10"/>
<text text-anchor="start" x="55.629" y="-15.4" font-family="sans-serif" font-size="14.00" fill="#000000"> &#160;Declarations</text>
<polygon fill="#8dd3c7" stroke="transparent" points="145,-10 145,-30 165,-30 165,-10 145,-10"/>
<text text-anchor="start" x="168.7251" y="-15.4" font-family="sans-serif" font-size="14.00" fill="#000000"> &#160;Module</text>
<polygon fill="#80b1d3" stroke="transparent" points="231,-10 231,-30 251,-30 251,-10 231,-10"/>
<text text-anchor="start" x="254.7812" y="-15.4" font-family="sans-serif" font-size="14.00" fill="#000000"> &#160;Bootstrap</text>
<polygon fill="#fdb462" stroke="transparent" points="328,-10 328,-30 348,-30 348,-10 328,-10"/>
<text text-anchor="start" x="351.6732" y="-15.4" font-family="sans-serif" font-size="14.00" fill="#000000"> &#160;Providers</text>
<polygon fill="#fb8072" stroke="transparent" points="424,-10 424,-30 444,-30 444,-10 424,-10"/>
<text text-anchor="start" x="447.7258" y="-15.4" font-family="sans-serif" font-size="14.00" fill="#000000"> &#160;Exports</text>
<g id="clust1" class="cluster">
<title>cluster_NgxMaterialPasswordStrengthModule</title>
<polygon fill="none" stroke="#000000" stroke-dasharray="1,5" points="8,-70 8,-268 524,-268 524,-70 8,-70"/>
</g>
<g id="clust2" class="cluster">
<title>cluster_NgxMaterialPasswordStrengthModule_declarations</title>
<polygon fill="none" stroke="#000000" points="19,-78 19,-130 513,-130 513,-78 19,-78"/>
</g>
<g id="clust6" class="cluster">
<title>cluster_NgxMaterialPasswordStrengthModule_exports</title>
<polygon fill="none" stroke="#000000" points="16,-208 16,-260 516,-260 516,-208 16,-208"/>
</g>
<!-- PasswordStrengthComponent -->
<g id="node1" class="node">
<title>PasswordStrengthComponent</title>
<polygon fill="#ffffb3" stroke="#000000" points="505.4255,-122 322.5745,-122 322.5745,-86 505.4255,-86 505.4255,-122"/>
<text text-anchor="middle" x="414" y="-99.8" font-family="Times,serif" font-size="14.00" fill="#000000">PasswordStrengthComponent</text>
</g>
<!-- NgxMaterialPasswordStrengthModule -->
<g id="node3" class="node">
<title>NgxMaterialPasswordStrengthModule</title>
<polygon fill="#8dd3c7" stroke="#000000" points="282.1699,-187 279.1699,-191 258.1699,-191 255.1699,-187 49.8301,-187 49.8301,-151 282.1699,-151 282.1699,-187"/>
<text text-anchor="middle" x="166" y="-164.8" font-family="Times,serif" font-size="14.00" fill="#000000">NgxMaterialPasswordStrengthModule</text>
</g>
<!-- PasswordStrengthComponent&#45;&gt;NgxMaterialPasswordStrengthModule -->
<g id="edge1" class="edge">
<title>PasswordStrengthComponent&#45;&gt;NgxMaterialPasswordStrengthModule</title>
<path fill="none" stroke="#000000" d="M444.4042,-122.0225C444.4042,-139.3734 444.4042,-163 444.4042,-163 444.4042,-163 292.4553,-163 292.4553,-163"/>
<polygon fill="#000000" stroke="#000000" points="292.4553,-159.5001 282.4553,-163 292.4553,-166.5001 292.4553,-159.5001"/>
</g>
<!-- NgxMaterialPasswordStrengthInfoComponent -->
<g id="node2" class="node">
<title>NgxMaterialPasswordStrengthInfoComponent</title>
<polygon fill="#ffffb3" stroke="#000000" points="304.7737,-122 27.2263,-122 27.2263,-86 304.7737,-86 304.7737,-122"/>
<text text-anchor="middle" x="166" y="-99.8" font-family="Times,serif" font-size="14.00" fill="#000000">NgxMaterialPasswordStrengthInfoComponent</text>
</g>
<!-- NgxMaterialPasswordStrengthInfoComponent&#45;&gt;NgxMaterialPasswordStrengthModule -->
<g id="edge2" class="edge">
<title>NgxMaterialPasswordStrengthInfoComponent&#45;&gt;NgxMaterialPasswordStrengthModule</title>
<path fill="none" stroke="#000000" d="M166,-122.1061C166,-122.1061 166,-140.991 166,-140.991"/>
<polygon fill="#000000" stroke="#000000" points="162.5001,-140.9909 166,-150.991 169.5001,-140.991 162.5001,-140.9909"/>
</g>
<!-- PasswordStrengthComponent  -->
<g id="node4" class="node">
<title>PasswordStrengthComponent </title>
<polygon fill="#fb8072" stroke="#000000" points="507.925,-252 322.075,-252 322.075,-216 507.925,-216 507.925,-252"/>
<text text-anchor="middle" x="415" y="-229.8" font-family="Times,serif" font-size="14.00" fill="#000000">PasswordStrengthComponent </text>
</g>
<!-- NgxMaterialPasswordStrengthModule&#45;&gt;PasswordStrengthComponent  -->
<g id="edge3" class="edge">
<title>NgxMaterialPasswordStrengthModule&#45;&gt;PasswordStrengthComponent </title>
<path fill="none" stroke="#000000" stroke-dasharray="5,2" d="M282.1241,-175C333.9745,-175 383.5958,-175 383.5958,-175 383.5958,-175 383.5958,-205.9775 383.5958,-205.9775"/>
<polygon fill="#000000" stroke="#000000" points="380.0959,-205.9774 383.5958,-215.9775 387.0959,-205.9775 380.0959,-205.9774"/>
</g>
<!-- NgxMaterialPasswordStrengthInfoComponent  -->
<g id="node5" class="node">
<title>NgxMaterialPasswordStrengthInfoComponent </title>
<polygon fill="#fb8072" stroke="#000000" points="304.2737,-252 23.7263,-252 23.7263,-216 304.2737,-216 304.2737,-252"/>
<text text-anchor="middle" x="164" y="-229.8" font-family="Times,serif" font-size="14.00" fill="#000000">NgxMaterialPasswordStrengthInfoComponent </text>
</g>
<!-- NgxMaterialPasswordStrengthModule&#45;&gt;NgxMaterialPasswordStrengthInfoComponent  -->
<g id="edge4" class="edge">
<title>NgxMaterialPasswordStrengthModule&#45;&gt;NgxMaterialPasswordStrengthInfoComponent </title>
<path fill="none" stroke="#000000" stroke-dasharray="5,2" d="M166,-187.1061C166,-187.1061 166,-205.991 166,-205.991"/>
<polygon fill="#000000" stroke="#000000" points="162.5001,-205.9909 166,-215.991 169.5001,-205.991 162.5001,-205.9909"/>
</g>
</g>
</svg>
