<?xml version="1.0" encoding="UTF-8" standalone="no"?>
<!DOCTYPE svg PUBLIC "-//W3C//DTD SVG 1.1//EN"
 "http://www.w3.org/Graphics/SVG/1.1/DTD/svg11.dtd">
<!-- Generated by graphviz version 2.40.1 (20161225.0304)
 -->
<!-- Title: dependencies Pages: 1 -->
<svg width="514pt" height="284pt"
 viewBox="0.00 0.00 514.00 284.00" xmlns="http://www.w3.org/2000/svg" xmlns:xlink="http://www.w3.org/1999/xlink">
<g id="graph0" class="graph" transform="scale(1 1) rotate(0) translate(4 280)">
<title>dependencies</title>
<polygon fill="#ffffff" stroke="transparent" points="-4,4 -4,-280 510,-280 510,4 -4,4"/>
<text text-anchor="start" x="232.0091" y="-42.4" font-family="sans-serif" font-weight="bold" font-size="14.00" fill="#000000">Legend</text>
<polygon fill="#ffffb3" stroke="transparent" points="19,-10 19,-30 39,-30 39,-10 19,-10"/>
<text text-anchor="start" x="42.629" y="-15.4" font-family="sans-serif" font-size="14.00" fill="#000000"> &#160;Declarations</text>
<polygon fill="#8dd3c7" stroke="transparent" points="132,-10 132,-30 152,-30 152,-10 132,-10"/>
<text text-anchor="start" x="155.7251" y="-15.4" font-family="sans-serif" font-size="14.00" fill="#000000"> &#160;Module</text>
<polygon fill="#80b1d3" stroke="transparent" points="218,-10 218,-30 238,-30 238,-10 218,-10"/>
<text text-anchor="start" x="241.7812" y="-15.4" font-family="sans-serif" font-size="14.00" fill="#000000"> &#160;Bootstrap</text>
<polygon fill="#fdb462" stroke="transparent" points="315,-10 315,-30 335,-30 335,-10 315,-10"/>
<text text-anchor="start" x="338.6732" y="-15.4" font-family="sans-serif" font-size="14.00" fill="#000000"> &#160;Providers</text>
<polygon fill="#fb8072" stroke="transparent" points="411,-10 411,-30 431,-30 431,-10 411,-10"/>
<text text-anchor="start" x="434.7258" y="-15.4" font-family="sans-serif" font-size="14.00" fill="#000000"> &#160;Exports</text>
<g id="clust1" class="cluster">
<title>cluster_MatPasswordStrengthModule</title>
<polygon fill="none" stroke="#000000" stroke-dasharray="1,5" points="8,-70 8,-268 498,-268 498,-70 8,-70"/>
</g>
<g id="clust2" class="cluster">
<title>cluster_MatPasswordStrengthModule_declarations</title>
<polygon fill="none" stroke="#000000" points="20,-78 20,-130 487,-130 487,-78 20,-78"/>
</g>
<g id="clust6" class="cluster">
<title>cluster_MatPasswordStrengthModule_exports</title>
<polygon fill="none" stroke="#000000" points="16,-208 16,-260 490,-260 490,-208 16,-208"/>
</g>
<!-- MatPasswordStrengthComponent -->
<g id="node1" class="node">
<title>MatPasswordStrengthComponent</title>
<polygon fill="#ffffb3" stroke="#000000" points="479.4748,-122 274.5252,-122 274.5252,-86 479.4748,-86 479.4748,-122"/>
<text text-anchor="middle" x="377" y="-99.8" font-family="Times,serif" font-size="14.00" fill="#000000">MatPasswordStrengthComponent</text>
</g>
<!-- MatPasswordStrengthModule -->
<g id="node3" class="node">
<title>MatPasswordStrengthModule</title>
<polygon fill="#8dd3c7" stroke="#000000" points="234.6923,-187 231.6923,-191 210.6923,-191 207.6923,-187 51.3077,-187 51.3077,-151 234.6923,-151 234.6923,-187"/>
<text text-anchor="middle" x="143" y="-164.8" font-family="Times,serif" font-size="14.00" fill="#000000">MatPasswordStrengthModule</text>
</g>
<!-- MatPasswordStrengthComponent&#45;&gt;MatPasswordStrengthModule -->
<g id="edge1" class="edge">
<title>MatPasswordStrengthComponent&#45;&gt;MatPasswordStrengthModule</title>
<path fill="none" stroke="#000000" d="M411.1625,-122.0225C411.1625,-139.3734 411.1625,-163 411.1625,-163 411.1625,-163 244.9111,-163 244.9111,-163"/>
<polygon fill="#000000" stroke="#000000" points="244.9112,-159.5001 234.9111,-163 244.9111,-166.5001 244.9112,-159.5001"/>
</g>
<!-- MatPasswordStrengthInfoComponent -->
<g id="node2" class="node">
<title>MatPasswordStrengthInfoComponent</title>
<polygon fill="#ffffb3" stroke="#000000" points="256.2962,-122 27.7038,-122 27.7038,-86 256.2962,-86 256.2962,-122"/>
<text text-anchor="middle" x="142" y="-99.8" font-family="Times,serif" font-size="14.00" fill="#000000">MatPasswordStrengthInfoComponent</text>
</g>
<!-- MatPasswordStrengthInfoComponent&#45;&gt;MatPasswordStrengthModule -->
<g id="edge2" class="edge">
<title>MatPasswordStrengthInfoComponent&#45;&gt;MatPasswordStrengthModule</title>
<path fill="none" stroke="#000000" d="M143,-122.1061C143,-122.1061 143,-140.991 143,-140.991"/>
<polygon fill="#000000" stroke="#000000" points="139.5001,-140.9909 143,-150.991 146.5001,-140.991 139.5001,-140.9909"/>
</g>
<!-- MatPasswordStrengthComponent  -->
<g id="node4" class="node">
<title>MatPasswordStrengthComponent </title>
<polygon fill="#fb8072" stroke="#000000" points="482.4753,-252 273.5247,-252 273.5247,-216 482.4753,-216 482.4753,-252"/>
<text text-anchor="middle" x="378" y="-229.8" font-family="Times,serif" font-size="14.00" fill="#000000">MatPasswordStrengthComponent </text>
</g>
<!-- MatPasswordStrengthModule&#45;&gt;MatPasswordStrengthComponent  -->
<g id="edge3" class="edge">
<title>MatPasswordStrengthModule&#45;&gt;MatPasswordStrengthComponent </title>
<path fill="none" stroke="#000000" stroke-dasharray="5,2" d="M234.7305,-175C287.2644,-175 342.8375,-175 342.8375,-175 342.8375,-175 342.8375,-205.9775 342.8375,-205.9775"/>
<polygon fill="#000000" stroke="#000000" points="339.3376,-205.9774 342.8375,-215.9775 346.3376,-205.9775 339.3376,-205.9774"/>
</g>
<!-- MatPasswordStrengthInfoComponent  -->
<g id="node5" class="node">
<title>MatPasswordStrengthInfoComponent </title>
<polygon fill="#fb8072" stroke="#000000" points="255.7961,-252 24.2039,-252 24.2039,-216 255.7961,-216 255.7961,-252"/>
<text text-anchor="middle" x="140" y="-229.8" font-family="Times,serif" font-size="14.00" fill="#000000">MatPasswordStrengthInfoComponent </text>
</g>
<!-- MatPasswordStrengthModule&#45;&gt;MatPasswordStrengthInfoComponent  -->
<g id="edge4" class="edge">
<title>MatPasswordStrengthModule&#45;&gt;MatPasswordStrengthInfoComponent </title>
<path fill="none" stroke="#000000" stroke-dasharray="5,2" d="M143,-187.1061C143,-187.1061 143,-205.991 143,-205.991"/>
<polygon fill="#000000" stroke="#000000" points="139.5001,-205.9909 143,-215.991 146.5001,-205.991 139.5001,-205.9909"/>
</g>
</g>
</svg>
